<?xml version="1.0" standalone="no"?>
<!DOCTYPE svg PUBLIC "-//W3C//DTD SVG 20010904//EN"
 "http://www.w3.org/TR/2001/REC-SVG-20010904/DTD/svg10.dtd">
<svg version="1.0" xmlns="http://www.w3.org/2000/svg"
 width="1933.000000pt" height="1933.000000pt" viewBox="0 0 1933.000000 1933.000000"
 preserveAspectRatio="xMidYMid meet">
<metadata>
Created by potrace 1.14, written by Peter Selinger 2001-2017
</metadata>
<g transform="translate(0.000000,1933.000000) scale(0.100000,-0.100000)"
fill="#000000" stroke="none">
<path d="M10288 19325 c-2 -2 -75 -5 -163 -9 -155 -6 -188 -8 -360 -21 -162
-12 -191 -15 -240 -20 -27 -2 -81 -7 -120 -11 -38 -3 -79 -8 -90 -10 -11 -2
-45 -6 -75 -9 -64 -6 -88 -9 -235 -30 -60 -8 -128 -18 -150 -21 -33 -4 -210
-34 -350 -59 -126 -22 -276 -53 -445 -91 -85 -20 -162 -37 -170 -39 -41 -9
-334 -87 -395 -105 -38 -11 -77 -22 -85 -24 -9 -2 -56 -17 -105 -32 -50 -15
-92 -28 -95 -29 -96 -24 -581 -196 -777 -276 -24 -10 -38 -15 -118 -49 -27
-12 -59 -25 -70 -30 -323 -136 -710 -325 -1025 -500 -303 -168 -680 -405 -955
-600 -55 -38 -111 -78 -125 -88 -136 -95 -634 -494 -690 -552 -3 -3 -50 -45
-105 -94 -100 -90 -536 -523 -630 -626 -159 -175 -369 -426 -559 -670 -103
-132 -383 -538 -470 -680 -15 -25 -47 -76 -71 -115 -135 -217 -309 -533 -428
-776 -155 -317 -233 -498 -349 -799 -93 -242 -240 -695 -287 -885 -5 -22 -14
-56 -19 -75 -8 -29 -76 -320 -87 -370 -23 -109 -66 -324 -69 -351 -3 -18 -14
-92 -26 -164 -11 -71 -23 -148 -26 -170 -3 -22 -7 -51 -9 -65 -2 -14 -6 -47
-10 -75 -3 -27 -7 -66 -9 -85 -8 -59 -16 -133 -21 -185 -33 -356 -39 -491 -39
-980 -1 -393 5 -603 19 -750 2 -22 7 -80 10 -130 3 -49 8 -101 10 -115 2 -14
6 -56 10 -95 6 -64 26 -235 40 -345 14 -99 67 -421 85 -510 11 -52 21 -106 24
-120 83 -469 306 -1216 526 -1765 194 -485 534 -1153 752 -1477 21 -31 38 -59
38 -62 0 -9 211 -318 307 -450 214 -293 459 -591 693 -840 92 -98 376 -382
451 -451 101 -93 244 -220 314 -280 39 -33 72 -62 75 -65 8 -9 230 -183 300
-235 36 -27 67 -53 68 -57 2 -4 8 -8 12 -8 5 0 40 -23 77 -51 58 -43 153 -107
476 -321 32 -21 60 -38 63 -38 3 0 45 -24 92 -53 48 -30 114 -69 147 -87 33
-18 87 -48 120 -67 90 -51 517 -263 625 -310 405 -179 795 -321 1204 -439 105
-31 199 -57 209 -59 10 -2 27 -7 37 -10 10 -3 27 -8 37 -10 10 -2 43 -11 75
-19 31 -8 67 -17 80 -20 12 -2 61 -13 108 -25 170 -40 567 -118 690 -135 33
-4 85 -12 139 -21 13 -2 45 -7 70 -11 25 -3 57 -8 71 -10 14 -2 48 -7 76 -9
28 -3 62 -8 75 -11 13 -2 50 -6 82 -9 32 -2 92 -9 135 -14 42 -5 111 -13 152
-16 41 -4 92 -8 112 -10 43 -4 230 -16 298 -20 25 -1 117 -6 205 -11 195 -10
973 -10 1180 -1 285 14 574 35 725 52 19 2 60 7 90 10 30 4 66 8 80 10 14 2
54 6 90 10 36 3 72 8 80 10 8 2 38 7 65 10 166 19 527 82 780 136 77 17 150
33 163 35 43 9 368 93 497 129 274 77 839 277 1060 375 290 129 569 265 750
365 562 311 1084 682 1555 1103 115 103 528 517 621 621 40 47 81 92 89 101
178 191 501 618 725 955 164 247 168 254 334 540 192 332 411 767 551 1095 17
41 38 89 45 105 45 101 185 453 185 465 0 4 -526 6 -553 1 -4 0 -21 -29 -36
-63 -224 -492 -529 -1058 -800 -1481 -60 -95 -250 -376 -298 -442 -325 -446
-558 -721 -902 -1065 -228 -228 -322 -314 -520 -479 -765 -639 -1667 -1118
-2591 -1376 -149 -41 -182 -50 -370 -94 -120 -28 -344 -70 -495 -91 -44 -6
-90 -13 -101 -15 -12 -2 -48 -6 -80 -10 -33 -4 -69 -8 -82 -10 -12 -2 -62 -7
-110 -10 -48 -4 -98 -8 -112 -11 -157 -25 -977 -25 -1205 1 -22 3 -69 7 -105
10 -36 2 -85 7 -110 9 -102 11 -149 17 -166 20 -11 2 -41 7 -69 10 -27 4 -106
16 -175 28 -69 11 -134 22 -145 24 -39 6 -171 34 -260 54 -49 11 -101 23 -114
26 -14 3 -28 7 -31 9 -4 2 -20 6 -36 9 -122 22 -686 204 -839 271 -16 8 -73
31 -125 53 -172 71 -223 95 -465 217 -449 227 -819 462 -1240 788 -71 56 -132
103 -135 106 -3 4 -32 28 -65 56 -33 27 -62 52 -65 55 -3 3 -21 18 -40 34 -19
16 -73 63 -119 105 -46 42 -93 84 -105 94 -38 33 -239 232 -331 328 -397 414
-748 868 -1073 1386 -238 381 -469 818 -649 1228 -41 94 -81 184 -88 200 -81
181 -244 626 -326 890 -43 137 -116 386 -124 420 -2 11 -22 90 -44 175 -22 85
-42 166 -44 180 -3 14 -10 43 -15 65 -6 22 -13 51 -16 65 -3 14 -23 115 -45
225 -49 245 -87 470 -115 680 -9 61 -35 285 -40 335 -3 25 -8 70 -11 100 -3
30 -8 84 -10 120 -3 36 -7 85 -9 110 -5 43 -14 166 -21 280 -23 362 -23 1179
0 1379 2 20 7 74 10 121 8 122 20 261 29 335 2 17 7 59 11 95 4 36 9 73 10 82
2 9 6 45 10 79 4 35 8 66 10 69 1 3 6 30 9 60 6 51 8 66 20 130 2 14 7 43 11
65 4 22 13 72 20 110 8 39 17 86 20 105 3 19 10 53 15 75 5 22 11 54 15 72 7
45 62 281 75 323 6 19 12 47 15 61 4 23 22 89 71 259 28 100 161 504 187 570
14 36 51 130 81 209 214 548 505 1103 834 1591 72 106 334 465 351 480 3 3 26
30 51 60 104 127 149 180 239 280 100 112 445 457 545 545 208 184 488 407
661 526 28 19 52 36 55 39 15 15 343 223 433 275 34 20 69 40 77 46 107 70
557 291 782 384 62 26 127 53 143 60 123 53 479 173 675 229 292 82 700 168
950 201 25 3 56 8 70 10 54 9 273 33 375 40 44 4 96 8 115 10 226 23 837 23
1150 0 99 -7 207 -16 240 -20 19 -2 62 -7 95 -10 33 -4 71 -8 85 -10 14 -3 47
-7 75 -10 90 -11 398 -65 490 -86 112 -26 248 -59 300 -73 367 -100 706 -231
1050 -406 1136 -577 2119 -1553 3047 -3025 131 -209 378 -628 378 -642 0 -3 8
-17 18 -31 20 -29 53 -88 148 -267 32 -60 75 -141 95 -180 l38 -70 230 0 c127
0 231 2 231 5 0 7 -223 690 -482 1475 -34 105 -62 192 -63 195 0 3 -58 181
-129 395 -213 649 -354 1078 -433 1320 -41 127 -97 295 -123 375 -26 80 -112
341 -190 580 -78 239 -148 453 -155 475 -15 45 -10 44 -140 27 -44 -6 -102
-14 -130 -16 -27 -3 -72 -8 -100 -12 -54 -6 -437 -6 -495 0 -19 2 -75 7 -125
11 -109 8 -145 11 -221 20 -60 7 -77 9 -149 19 -22 3 -62 8 -90 11 -27 3 -61
8 -75 10 -14 2 -77 11 -140 20 -63 9 -131 19 -150 21 -77 12 -557 94 -745 128
-21 4 -86 16 -120 22 -68 12 -325 56 -350 60 -16 2 -41 6 -55 8 -14 3 -45 8
-70 11 -25 3 -52 8 -60 10 -8 2 -35 7 -60 10 -55 8 -97 14 -130 20 -14 2 -45
7 -70 10 -25 3 -56 8 -70 10 -77 14 -369 54 -585 80 -27 3 -59 8 -70 10 -11 2
-50 7 -87 10 -37 3 -77 8 -90 10 -13 2 -52 6 -88 9 -36 4 -83 8 -105 11 -102
11 -247 25 -315 30 -41 3 -100 7 -130 10 -30 3 -98 7 -150 11 -52 3 -129 8
-170 10 -75 5 -908 13 -912 9z m-3723 -1213 c-6 -5 -102 -73 -215 -152 -240
-168 -358 -254 -555 -405 -79 -61 -158 -122 -175 -135 -18 -14 -41 -32 -50
-40 -21 -17 -16 -13 -165 -135 -496 -403 -1007 -901 -1370 -1335 -416 -496
-757 -1015 -1043 -1585 -38 -77 -80 -162 -92 -190 -13 -27 -36 -79 -52 -114
-16 -35 -51 -118 -79 -185 -27 -66 -54 -130 -59 -141 -95 -213 -312 -933 -356
-1183 -3 -15 -11 -55 -19 -90 -8 -34 -17 -77 -20 -95 -3 -17 -10 -54 -15 -82
-6 -27 -12 -63 -15 -80 -2 -16 -14 -88 -25 -160 -26 -159 -25 -152 -50 -355
-27 -224 -28 -234 -36 -325 -3 -44 -7 -93 -9 -110 -2 -16 -7 -79 -10 -140 -4
-60 -8 -126 -10 -145 -19 -187 -26 -1099 -12 -1385 11 -205 24 -407 32 -495 2
-25 7 -76 10 -115 3 -38 8 -86 10 -105 2 -19 7 -62 10 -95 3 -33 8 -71 10 -85
2 -14 6 -52 10 -85 16 -154 82 -575 115 -735 11 -52 21 -106 24 -120 37 -207
193 -825 246 -970 5 -14 23 -70 40 -125 38 -122 111 -332 153 -440 195 -510
363 -862 658 -1383 85 -149 281 -448 438 -667 83 -117 95 -132 116 -158 6 -7
24 -30 40 -52 17 -22 32 -42 35 -45 3 -3 30 -36 60 -75 58 -73 201 -242 304
-359 75 -86 506 -520 597 -602 36 -32 94 -84 129 -114 35 -30 68 -60 74 -65
28 -27 301 -248 376 -305 252 -193 703 -503 865 -595 11 -7 77 -46 146 -87
563 -337 1246 -658 1914 -899 272 -99 799 -267 895 -285 13 -3 27 -8 30 -10 5
-6 -180 3 -250 11 -19 2 -80 7 -135 10 -55 4 -107 8 -115 10 -8 2 -58 7 -110
10 -52 4 -98 9 -101 11 -3 2 -35 6 -70 9 -35 3 -80 7 -99 10 -19 3 -53 7 -75
10 -22 2 -58 7 -80 10 -22 3 -54 7 -70 10 -36 4 -227 33 -270 40 -74 12 -92
15 -115 20 -14 3 -52 10 -85 15 -407 72 -916 203 -1305 335 -153 52 -415 150
-485 180 -16 8 -82 36 -145 63 -498 215 -1015 500 -1490 820 -180 122 -443
317 -550 408 -14 12 -77 65 -140 119 -616 521 -1169 1172 -1629 1919 -50 81
-91 149 -91 151 0 2 -21 39 -46 82 -107 180 -291 534 -384 738 -335 734 -582
1513 -719 2270 -17 94 -33 184 -36 200 -3 26 -27 185 -40 265 -2 14 -7 54 -10
90 -4 36 -8 72 -10 80 -1 8 -6 49 -10 90 -3 41 -8 86 -10 100 -5 36 -16 179
-32 410 -16 236 -8 1109 12 1300 2 19 6 71 10 115 3 44 10 116 15 160 5 44 12
107 15 140 5 62 23 201 30 244 2 13 7 45 11 70 14 106 57 348 90 506 20 94 38
181 40 195 13 64 90 361 130 500 158 546 352 1040 594 1515 106 207 289 535
316 566 8 8 14 19 14 23 0 25 303 468 492 718 79 105 272 345 287 358 4 3 19
21 35 40 173 212 605 651 882 895 6 6 26 24 45 40 28 25 120 103 327 276 22
19 309 238 354 271 298 217 683 469 954 624 270 155 490 271 759 404 389 191
412 201 390 182z"/>
<path d="M5049 15031 c-1 -9 -2 -27 -4 -41 -1 -14 -5 -68 -9 -120 -4 -52 -9
-106 -11 -120 -2 -14 -6 -68 -10 -120 -4 -52 -8 -106 -10 -120 -2 -14 -6 -68
-10 -120 -4 -52 -8 -106 -10 -120 -2 -14 -6 -68 -10 -120 -4 -52 -8 -111 -10
-130 -2 -19 -7 -69 -10 -110 -5 -73 -12 -150 -20 -240 -2 -25 -7 -83 -10 -130
-3 -47 -8 -96 -10 -110 -2 -14 -6 -68 -10 -120 -4 -52 -8 -106 -10 -120 -2
-14 -6 -68 -10 -121 -3 -53 -7 -105 -9 -115 -2 -10 -7 -64 -10 -119 -4 -55 -9
-111 -11 -125 -2 -14 -7 -65 -10 -115 -4 -49 -8 -106 -10 -125 -2 -19 -6 -75
-10 -125 -3 -49 -8 -101 -10 -115 -2 -14 -7 -70 -10 -125 -4 -55 -8 -107 -10
-115 -2 -8 -6 -62 -10 -120 -4 -58 -9 -108 -12 -112 -5 -9 2 -9 161 -10 95 -1
111 1 122 17 8 10 14 24 14 30 0 19 96 303 145 432 107 277 228 534 361 764
63 110 183 301 217 344 4 6 39 52 77 103 265 358 601 671 975 908 239 151 601
287 880 331 17 2 41 6 55 8 111 19 422 26 560 12 78 -7 199 -25 209 -32 3 -1
24 -6 46 -9 70 -11 269 -83 366 -131 289 -145 490 -343 619 -610 36 -73 92
-230 104 -287 3 -12 12 -54 20 -93 17 -76 34 -182 42 -260 2 -27 7 -63 9 -80
16 -109 19 -716 19 -4045 0 -3304 -3 -4005 -18 -4100 -3 -14 -7 -61 -11 -105
-4 -44 -9 -89 -10 -100 -27 -174 -29 -183 -54 -287 -57 -242 -179 -463 -350
-637 -263 -267 -579 -438 -1081 -585 -62 -18 -295 -71 -352 -80 -21 -3 -77
-13 -124 -21 -48 -8 -90 -15 -93 -15 -5 0 -7 -243 -2 -272 0 -4 1406 -6 3124
-5 l3122 2 3 137 c2 76 0 138 -5 138 -4 0 -48 7 -98 16 -49 8 -103 17 -120 20
-145 23 -403 90 -560 145 -608 211 -1016 563 -1178 1014 -27 77 -72 268 -82
354 -4 30 -8 61 -10 70 -1 9 -6 57 -10 106 -4 50 -9 97 -10 106 -15 81 -18
853 -19 4109 0 3380 3 3906 19 4061 13 121 33 267 40 289 2 8 7 30 10 49 10
58 46 183 73 251 195 494 684 830 1292 888 141 13 496 5 560 -13 8 -3 33 -7
55 -10 45 -5 51 -7 150 -30 373 -86 744 -272 1085 -544 107 -85 354 -327 453
-443 257 -301 497 -691 691 -1120 77 -171 208 -533 282 -775 2 -7 16 -13 31
-14 216 -5 271 -1 259 19 -2 4 -7 50 -10 102 -4 52 -8 111 -11 130 -2 19 -7
75 -10 125 -4 49 -8 103 -10 120 -2 16 -6 66 -10 110 -3 44 -8 103 -10 130 -3
28 -7 79 -10 115 -2 36 -7 92 -10 125 -3 33 -7 89 -10 125 -4 36 -8 88 -10
115 -3 28 -7 82 -10 120 -3 39 -7 93 -10 120 -8 93 -14 160 -20 240 -4 44 -8
100 -11 125 -2 25 -6 72 -9 105 -5 61 -13 162 -20 245 -2 25 -6 77 -9 115 -3
39 -8 90 -10 115 -3 25 -8 81 -11 125 -3 44 -8 103 -10 130 -2 28 -7 82 -10
120 -3 39 -8 93 -10 120 -3 28 -7 82 -10 120 -3 39 -8 97 -12 130 -3 33 -6 79
-7 103 -1 28 -6 44 -16 46 -8 2 -2599 4 -5757 4 -5253 -1 -5743 -2 -5744 -17z
m1491 -316 c0 -2 -39 -26 -87 -55 -264 -154 -433 -279 -609 -455 -95 -94 -252
-273 -332 -380 -57 -75 -161 -219 -211 -290 -81 -115 -81 -115 -76 -74 2 19 6
63 10 99 3 36 8 81 10 100 2 19 7 67 10 105 3 39 8 88 10 110 6 51 18 180 30
320 3 33 8 76 10 95 2 19 7 69 11 110 3 41 8 91 10 110 2 19 6 71 10 115 3 44
8 83 10 86 4 7 1194 10 1194 4z m9338 -4 c5 -3 13 -28 16 -56 6 -43 55 -387
70 -495 3 -19 13 -84 21 -145 9 -60 18 -123 21 -140 2 -16 6 -43 8 -60 6 -46
17 -127 22 -155 2 -14 7 -45 10 -70 l6 -44 -75 101 c-42 56 -86 114 -99 129
-244 293 -443 478 -683 635 -142 93 -249 152 -485 263 l-95 44 626 0 c345 0
631 -3 637 -7z m-3891 -36 c-23 -18 -172 -128 -332 -245 -321 -235 -418 -316
-482 -404 -97 -131 -114 -210 -121 -556 -8 -378 -7 -8795 1 -9030 8 -253 17
-303 69 -401 29 -55 135 -169 228 -244 25 -20 54 -45 66 -54 23 -20 394 -296
434 -324 l24 -17 -29 0 c-17 0 -598 -2 -1293 -3 l-1263 -2 28 23 c15 13 78 59
138 103 318 229 378 277 482 386 140 145 161 223 170 608 6 255 8 8440 3 8910
-2 188 -8 274 -24 380 -2 11 -15 56 -30 100 -46 134 -141 260 -316 419 -41 38
-91 83 -110 100 -19 18 -97 87 -172 155 -76 67 -138 124 -138 125 0 2 610 3
1355 3 l1354 0 -42 -32z"/>
</g>
</svg>
